<?xml version="1.0" encoding="UTF-8"?>
<svg id="Layer_2" xmlns="http://www.w3.org/2000/svg" width="2702.5588" height="2700" version="1.1" viewBox="0 0 2702.5588 2700">
  <!-- Generator: Adobe Illustrator 29.7.1, SVG Export Plug-In . SVG Version: 2.1.1 Build 8)  -->
  <path d="M1979.0193,2299.9309H903.7163V419.4938h1075.303c24.369,0,44.3246,19.7639,44.3246,44.3245v1791.7879c0,24.3689-19.7638,44.3247-44.3246,44.3247Z" fill="none" stroke="#000" stroke-miterlimit="10" stroke-width="5"/>
  <rect x="1828.9681" y="1174.3549" width="67.7341" height="371.6741" rx="33.7711" ry="33.7711" fill="#949494"/>
  <rect x="1561.2935" y="1174.3549" width="67.7341" height="371.6741" rx="33.7711" ry="33.7711" fill="#949494"/>
  <rect x="1293.6191" y="1174.3549" width="67.7341" height="371.6741" rx="33.7711" ry="33.7711" fill="#949494"/>
  <rect x="1025.9447" y="1174.3549" width="67.7341" height="371.6741" rx="33.7711" ry="33.7711" fill="#949494"/>
  <path d="M723.5397,2299.9309h180.1766V419.4938h-180.1766c-24.3688,0-44.3245,19.7639-44.3245,44.3245v1791.7879c0,24.3689,19.7639,44.3247,44.3245,44.3247Z" fill="none" stroke="#000" stroke-miterlimit="10" stroke-width="5"/>
  <rect x="1823.2119" y="652.6296" width="79.0551" height="183.4385" rx="8.6347" ry="8.6347" fill="none" stroke="#000" stroke-miterlimit="10" stroke-width="5"/>
  <path d="M2054.0449,2046.2637h-30.701v-173.8445h30.701c12.2805,0,22.2583,9.9779,22.2583,22.2582v129.328c0,12.2804-9.9778,22.2582-22.2583,22.2582h0Z" fill="none" stroke="#000" stroke-miterlimit="10" stroke-width="5"/>
  <rect x="1757.5884" y="2299.9308" width="135.4681" height="38.3762" fill="none" stroke="#000" stroke-miterlimit="10" stroke-width="5"/>
  <rect x="1525.9873" y="2299.9308" width="135.4683" height="38.3762" fill="none" stroke="#000" stroke-miterlimit="10" stroke-width="5"/>
  <rect x="605.3409" y="1802.5744" width="73.874" height="328.8846" fill="none" stroke="#000" stroke-miterlimit="10" stroke-width="5"/>
  <rect x="605.3409" y="602.1646" width="73.874" height="328.8847" fill="none" stroke="#000" stroke-miterlimit="10" stroke-width="5"/>
  <circle cx="1862.7393" cy="1359.7123" r="29.3578" fill="#fff"/>
  <circle cx="1862.7393" cy="1005.3075" r="16.8855" fill="none" stroke="#000" stroke-miterlimit="10" stroke-width="5"/>
  <rect x="1555.5374" y="652.6296" width="79.0551" height="183.4385" rx="8.6347" ry="8.6347" fill="none" stroke="#000" stroke-miterlimit="10" stroke-width="5"/>
  <circle cx="1595.0647" cy="1359.7123" r="29.3578" fill="#fff"/>
  <circle cx="1595.0647" cy="1005.3075" r="16.8855" fill="none" stroke="#000" stroke-miterlimit="10" stroke-width="5"/>
  <rect x="1287.8627" y="652.6296" width="79.0551" height="183.4385" rx="8.6347" ry="8.6347" fill="none" stroke="#000" stroke-miterlimit="10" stroke-width="5"/>
  <circle cx="1327.3903" cy="1359.7123" r="29.3578" fill="#fff"/>
  <circle cx="1327.3903" cy="1005.3075" r="16.8855" fill="none" stroke="#000" stroke-miterlimit="10" stroke-width="5"/>
  <rect x="1020.1882" y="652.6296" width="79.0551" height="183.4385" rx="8.6347" ry="8.6347" fill="none" stroke="#000" stroke-miterlimit="10" stroke-width="5"/>
  <circle cx="1059.7158" cy="1359.7123" r="29.3578" fill="#fff"/>
  <circle cx="1059.7158" cy="1005.3075" r="16.8855" fill="none" stroke="#000" stroke-miterlimit="10" stroke-width="5"/>
  <g>
    <circle cx="785.3255" cy="795.3893" r="18.6125"/>
    <circle cx="785.3255" cy="737.633" r="18.6125"/>
  </g>
  <polygon points="745.0304 1926.7217 825.6206 1926.7217 785.3255 2003.6661 745.0304 1926.7217"/>
  <g isolation="isolate">
    <g>
      <path d="M858.2651,162.9943l.2402.2402c4.1997-7.4399,11.0396-10.9199,18.8389-10.9199,9.48,0,16.9194,5.2798,19.5596,13.1997,4.4395-7.0796,11.3994-13.1997,20.7588-13.1997,19.6797,0,21.2393,17.3994,21.2393,24.3594v37.6782h-7.1997v-38.8784c0-10.4395-5.9995-16.5596-15.8394-16.5596-11.8794,0-17.2793,9.96-17.2793,20.7593v34.6787h-7.1997v-38.8784c0-10.4395-5.9995-16.5596-15.8394-16.5596-11.8794,0-17.2793,9.96-17.2793,20.7593v34.6787h-7.1997v-46.6782c0-4.6797-.3599-9.4795-.6001-13.5596h7.4399l.3599,8.8799Z"/>
      <path d="M962.0645,185.9133c.2402,12.8398,6.1196,23.6392,20.8794,23.6392,8.5195,0,15.5991-6.1196,17.3994-14.3994h7.5596c-3.7197,14.3994-12.7197,20.999-27.2393,20.999-17.999,0-26.3984-15.479-26.3984-31.9185,0-16.3193,8.9995-31.9189,26.8789-31.9189,20.1592,0,27.4785,14.7598,27.4785,33.5986h-46.5581ZM1000.8228,179.3137c-.8398-11.6396-7.0796-20.3994-19.5591-20.3994-11.7593,0-17.999,9.8398-18.959,20.3994h38.5181Z"/>
      <path d="M1031.7842,214.3522h-7.1997v-46.6782c0-4.6797-.3599-9.4795-.6001-13.5596h7.4399l.3599,8.8799.2397.2402c4.2002-7.4399,11.04-10.9199,18.8394-10.9199,19.6792,0,21.2393,17.3994,21.2393,24.3594v37.6782h-7.1997v-38.8784c0-10.4395-6-16.5596-15.8394-16.5596-11.8794,0-17.2793,9.96-17.2793,20.7593v34.6787Z"/>
      <path d="M1131.6226,154.1144h7.1997v46.6782c0,4.6802.3599,9.48.6001,13.5596h-7.4399l-.3599-8.8794-.2402-.2402c-4.1997,7.4395-11.0391,10.9194-18.8389,10.9194-19.6792,0-21.2393-17.3989-21.2393-24.3589v-37.6787h7.1997v38.8789c0,10.4395,5.9995,16.5591,15.8394,16.5591,11.8794,0,17.2793-9.9595,17.2793-20.7593v-34.6787Z"/>
    </g>
  </g>
  <g isolation="isolate">
    <g>
      <path d="M330.6162,1331.8351h-11.9995v-6.6001h11.9995v-12.8394l7.1997-3.1196v15.959h13.6797v6.6001h-13.6797v40.3184c-.1201,5.5195,2.7598,8.5195,8.2798,8.5195,2.1597,0,4.3198-.1201,6.2397-.7207v6.2402c-2.2798.5996-4.9199,1.0801-7.3198,1.0801-15.2393,0-14.3994-9.7188-14.3994-17.8789v-37.5586Z"/>
      <path d="M402.7349,1325.235h7.1997v46.6782c0,4.6797.3599,9.4805.6001,13.5596h-7.4399l-.3599-8.8799-.2402-.2402c-4.1997,7.4395-11.0391,10.9199-18.8389,10.9199-19.6792,0-21.2393-17.3984-21.2393-24.3594v-37.6782h7.1997v38.8794c0,10.4395,5.9995,16.5586,15.8394,16.5586,11.8794,0,17.2793-9.959,17.2793-20.7598v-34.6782Z"/>
      <path d="M436.3359,1385.4728h-7.1997v-46.6782c.1201-4.6797-.3599-9.4795-.6001-13.5596h7.4399l.3599,8.8799h.2397c2.1602-6.1196,7.5601-10.4395,13.5596-10.6797,2.3999-.1201,4.7998,0,7.1997.1201v6.96c-1.4399-.1201-2.9995-.4805-4.4399-.4805-10.6792,0-16.3193,7.6797-16.5591,19.1992v36.2388Z"/>
      <path d="M476.2949,1385.4728h-7.1997v-46.6782c0-4.6797-.3599-9.4795-.6001-13.5596h7.4399l.3599,8.8799.2397.2402c4.2002-7.4399,11.04-10.9199,18.8394-10.9199,19.6792,0,21.2393,17.3994,21.2393,24.3594v37.6782h-7.1997v-38.8784c0-10.4395-6-16.5596-15.8394-16.5596-11.8794,0-17.2793,9.96-17.2793,20.7593v34.6787Z"/>
    </g>
  </g>
  <g isolation="isolate">
    <g>
      <path d="M259.937,1956.9777c.2402,12.8398,6.1201,23.6387,20.8794,23.6387,8.5195,0,15.5991-6.1191,17.3989-14.3994h7.5601c-3.7202,14.3994-12.7197,20.999-27.2388,20.999-17.9995,0-26.3994-15.4785-26.3994-31.918,0-16.3193,9-31.9189,26.8789-31.9189,20.1592,0,27.479,14.7598,27.479,33.5986h-46.5581ZM298.6958,1950.3781c-.8403-11.6396-7.0801-20.3994-19.5596-20.3994-11.7593,0-17.999,9.8398-18.959,20.3994h38.5186Z"/>
      <path d="M329.6572,1985.4162h-7.1997v-46.6777c0-4.6797-.3599-9.4795-.6001-13.5596h7.4399l.3599,8.8799.2397.2402c4.2002-7.4404,11.04-10.9199,18.8394-10.9199,19.6792,0,21.2393,17.3994,21.2393,24.3594v37.6777h-7.1997v-38.8779c0-10.4395-6-16.5596-15.8394-16.5596-11.8794,0-17.2793,9.96-17.2793,20.7588v34.6787Z"/>
      <path d="M394.3369,1931.7785h-11.9995v-6.5996h11.9995v-12.8398l7.1997-3.1191v15.959h13.6797v6.5996h-13.6797v40.3184c-.1201,5.5195,2.7598,8.5195,8.2798,8.5195,2.1597,0,4.3198-.1201,6.2397-.7197v6.2402c-2.2798.5996-4.9199,1.0791-7.3198,1.0791-15.2393,0-14.3994-9.7188-14.3994-17.8789v-37.5586Z"/>
      <path d="M433.3359,1956.9777c.2402,12.8398,6.1196,23.6387,20.8794,23.6387,8.5195,0,15.5991-6.1191,17.3994-14.3994h7.5596c-3.7197,14.3994-12.7197,20.999-27.2393,20.999-17.999,0-26.3984-15.4785-26.3984-31.918,0-16.3193,8.9995-31.9189,26.8789-31.9189,20.1592,0,27.4785,14.7598,27.4785,33.5986h-46.5581ZM472.0942,1950.3781c-.8398-11.6396-7.0796-20.3994-19.5591-20.3994-11.7593,0-17.999,9.8398-18.959,20.3994h38.5181Z"/>
      <path d="M503.0557,1985.4162h-7.1997v-46.6777c.1201-4.6797-.3599-9.4795-.6001-13.5596h7.4399l.3599,8.8799h.2397c2.1602-6.1201,7.5601-10.4395,13.5596-10.6797,2.3999-.1201,4.7998,0,7.1997.1201v6.96c-1.4399-.1201-2.9995-.4805-4.4399-.4805-10.6792,0-16.3193,7.6797-16.5591,19.1992v36.2383Z"/>
    </g>
  </g>
  <g isolation="isolate">
    <g>
      <path d="M1071.3726,1828.7814c11.3999,0,20.9995,3.96,21.9595,16.6797h-7.7998c-.7202-7.5596-7.4399-10.0801-14.8794-10.0801-6.7197,0-13.5596,2.6396-13.5596,9.7197,0,8.8799,11.6396,8.04,27.959,13.7998,6.2397,2.1592,10.1997,7.5596,10.1997,14.0391,0,13.5596-12.5996,19.6787-25.3193,19.6787-10.4395,0-22.439-4.9189-22.6787-18.2383h7.7993c.6001,8.999,8.52,11.6387,16.6792,11.6387,7.6797,0,15.7197-3.5996,15.7197-11.999,0-8.6396-9.4795-10.0791-19.0791-12.2393-9.48-2.2803-19.0796-5.04-19.0796-16.1992,0-12.4805,11.5195-16.7998,22.0791-16.7998Z"/>
      <path d="M1116.4932,1837.1808h-11.9995v-6.5996h11.9995v-12.8398l7.1997-3.1191v15.959h13.6797v6.5996h-13.6797v40.3184c-.1196,5.5195,2.7603,8.5195,8.2798,8.5195,2.1602,0,4.3198-.1191,6.2397-.7197v6.2402c-2.2798.5996-4.9199,1.0791-7.3198,1.0791-15.2393,0-14.3994-9.7188-14.3994-17.8789v-37.5586Z"/>
      <path d="M1158.4922,1890.8195h-7.1997v-46.6787c.1201-4.6797-.3599-9.4795-.6001-13.5596h7.4399l.3599,8.8799h.2402c2.1597-6.1201,7.5596-10.4395,13.5591-10.6797,2.3999-.1201,4.7998,0,7.1997.1201v6.96c-1.4399-.1201-3-.4805-4.4395-.4805-10.6797,0-16.3193,7.6797-16.5596,19.1992v36.2393Z"/>
      <path d="M1225.3301,1848.341c-.7197-9.8398-5.7598-12.96-14.2793-12.96-7.5596,0-13.7998,2.2803-14.7598,10.4404h-7.6797c1.8003-12.3604,11.04-17.04,22.5596-17.04,13.3193,0,21.5986,6.1201,21.3589,19.9189v28.5586c-.1201,4.6807.3599,9.4805.6001,13.5605h-7.4399l-.2397-8.8799h-.2402l-.3599.8398c-2.6401,5.04-10.6797,9.8389-18.8394,9.8389-11.1592,0-20.0391-6.8389-20.0391-18.5986,0-8.1592,4.9199-14.3994,12.1196-17.3994,8.0396-3.4795,18.479-2.2793,27.2388-2.7598v-5.5195ZM1207.3311,1886.0187c15.7192,0,18.7188-12.959,17.999-25.5586-10.1997.3604-31.5586-1.5596-31.5586,13.5596,0,8.1592,6.2397,11.999,13.5596,11.999Z"/>
      <path d="M1256.4111,1890.8195v-53.6387h-12.1191v-6.5996h12.1191v-12.8398c0-10.3184,4.2002-14.999,14.5195-14.999,2.2798,0,4.6797.8408,6.8398,1.3203v5.7598c-1.4399-.2402-3-.4795-4.4399-.4795-9.8394,0-10.0796,4.9189-9.7197,13.5586v7.6797h13.6797v6.5996h-13.6797v53.6387h-7.1997Z"/>
      <path d="M1290.6108,1862.3801c.2402,12.8398,6.1196,23.6387,20.8794,23.6387,8.5195,0,15.5991-6.1191,17.3994-14.3984h7.5596c-3.7197,14.3984-12.7197,20.998-27.2393,20.998-17.999,0-26.3984-15.4785-26.3984-31.918,0-16.3193,8.9995-31.9189,26.8789-31.9189,20.1592,0,27.4785,14.7598,27.4785,33.5986h-46.5581ZM1329.3691,1855.7805c-.8398-11.6396-7.0796-20.3994-19.5591-20.3994-11.7593,0-17.999,9.8398-18.959,20.3994h38.5181Z"/>
    </g>
  </g>
  <g isolation="isolate">
    <g>
      <path d="M1559.043,1881.3391h.2402l18.2393-50.7578h8.5195l17.7598,50.2783h.2393l17.3994-50.2783h7.9199l-22.4395,60.2383h-6.8389l-18.4795-51.959h-.2402l-18.8389,51.959h-7.3203l-22.0791-60.2383h7.9199l17.999,50.7578Z"/>
      <path d="M1642.5635,1862.3801c.2402,12.8398,6.1201,23.6387,20.8799,23.6387,8.5195,0,15.5986-6.1191,17.3994-14.3984h7.5596c-3.7197,14.3984-12.7197,20.998-27.2393,20.998-17.999,0-26.3984-15.4785-26.3984-31.918,0-16.3193,8.999-31.9189,26.8789-31.9189,20.1592,0,27.4785,14.7598,27.4785,33.5986h-46.5586ZM1681.3223,1855.7805c-.8398-11.6396-7.0801-20.3994-19.5596-20.3994-11.7588,0-17.999,9.8398-18.959,20.3994h38.5186Z"/>
      <path d="M1739.1631,1848.341c-.7197-9.8398-5.7598-12.96-14.2793-12.96-7.5596,0-13.7988,2.2803-14.7588,10.4404h-7.6797c1.7998-12.3604,11.0391-17.04,22.5586-17.04,13.3193,0,21.5996,6.1201,21.3594,19.9189v28.5586c-.1201,4.6807.3594,9.4805.5996,13.5605h-7.4395l-.2402-8.8799h-.2402l-.3594.8398c-2.6396,5.04-10.6797,9.8389-18.8398,9.8389-11.1592,0-20.0391-6.8389-20.0391-18.5986,0-8.1592,4.9199-14.3994,12.1201-17.3994,8.0391-3.4795,18.4785-2.2793,27.2383-2.7598v-5.5195ZM1721.1641,1886.0187c15.7197,0,18.7197-12.959,17.999-25.5586-10.1992.3604-31.5586-1.5596-31.5586,13.5596,0,8.1592,6.2402,11.999,13.5596,11.999Z"/>
      <path d="M1771.085,1913.8586h-7.2002v-69.7178c.1201-4.6797-.3604-9.4795-.5996-13.5596h7.4395l.3604,8.8799.2393.2402c4.2002-7.0801,12.5996-10.9199,20.6396-10.9199,17.8789,0,24.7188,16.0791,24.7188,31.6787,0,15.1191-6.8398,32.1582-24.3594,32.1582-8.7588,0-16.0791-3.959-20.999-11.1592h-.2393v32.3994ZM1791.6035,1886.0187c13.7998,0,17.2793-15.2383,17.2793-26.3984,0-11.5195-4.6797-24.2393-18.3594-24.2393-14.0391,0-19.4385,11.6396-19.4385,23.8799,0,13.6787,4.7998,26.7578,20.5186,26.7578Z"/>
      <path d="M1883.6426,1860.7004c0,15.8398-8.8799,31.918-28.0791,31.918s-28.0791-16.0781-28.0791-31.918,8.8799-31.9189,28.0791-31.9189,28.0791,16.0791,28.0791,31.9189ZM1855.5635,1835.381c-14.5195,0-20.2793,14.1592-20.2793,25.3193s5.7598,25.3184,20.2793,25.3184,20.2793-14.1592,20.2793-25.3184-5.7598-25.3193-20.2793-25.3193Z"/>
      <path d="M1905.7236,1890.8195h-7.1992v-46.6787c0-4.6797-.3604-9.4795-.6006-13.5596h7.4404l.3594,8.8799.2402.2402c4.2002-7.4404,11.04-10.9199,18.8389-10.9199,19.6797,0,21.2393,17.3994,21.2393,24.3594v37.6787h-7.1992v-38.8789c0-10.4395-6-16.5596-15.8398-16.5596-11.8789,0-17.2793,9.96-17.2793,20.7588v34.6797Z"/>
    </g>
  </g>
  <g isolation="isolate">
    <g>
      <path d="M2189.916,1334.1149l.2402.2402c4.2002-7.4399,11.04-10.9199,18.8398-10.9199,9.4795,0,16.9189,5.2798,19.5586,13.1997,4.4404-7.0796,11.4004-13.1997,20.7598-13.1997,19.6787,0,21.2383,17.3994,21.2383,24.3594v37.6782h-7.1992v-38.8784c0-10.4395-6-16.5596-15.8398-16.5596-11.8789,0-17.2793,9.96-17.2793,20.7593v34.6787h-7.1992v-38.8784c0-10.4395-6-16.5596-15.8398-16.5596-11.8789,0-17.2793,9.96-17.2793,20.7593v34.6787h-7.1992v-46.6782c0-4.6797-.3594-9.4795-.5996-13.5596h7.4395l.3594,8.8799Z"/>
      <path d="M2341.3535,1355.3537c0,15.8398-8.8789,31.9189-28.0781,31.9189s-28.0791-16.0791-28.0791-31.9189,8.8799-31.9185,28.0791-31.9185,28.0781,16.0796,28.0781,31.9185ZM2313.2754,1330.0349c-14.5195,0-20.2793,14.1597-20.2793,25.3188s5.7598,25.3193,20.2793,25.3193,20.2793-14.1602,20.2793-25.3193-5.7598-25.3188-20.2793-25.3188Z"/>
      <path d="M2353.8379,1325.235l20.7598,50.2778,20.0391-50.2778h7.9189l-23.8789,60.2378h-8.1592l-24.5996-60.2378h7.9199Z"/>
      <path d="M2415.6387,1357.0334c.2402,12.8398,6.1201,23.6396,20.8789,23.6396,8.5195,0,15.5996-6.1201,17.3994-14.3994h7.5596c-3.7197,14.3994-12.7188,20.999-27.2383,20.999-18,0-26.3994-15.4795-26.3994-31.9189,0-16.3188,9-31.9185,26.8789-31.9185,20.1592,0,27.4795,14.7598,27.4795,33.5981h-46.5586ZM2454.3975,1350.4338c-.8408-11.6392-7.0801-20.3989-19.5596-20.3989-11.7598,0-17.999,9.8398-18.959,20.3989h38.5186Z"/>
    </g>
  </g>
  <g isolation="isolate">
    <g>
      <path d="M2165.9941,1985.4172v-53.6377h-12.1191v-6.6006h12.1191v-12.8389c0-10.3193,4.2002-15,14.5195-15,2.2803,0,4.6797.8408,6.8398,1.3203v5.7598c-1.4395-.2402-3-.4795-4.4395-.4795-9.8398,0-10.0801,4.9189-9.7197,13.5586v7.6797h13.6797v6.6006h-13.6797v53.6377h-7.2002ZM2207.7529,1907.7805h-8.3994v-9h8.3994v9ZM2207.1533,1925.1789v60.2383h-7.2002v-60.2383h7.2002Z"/>
      <path d="M2234.7539,1985.4172h-7.1992v-46.6787c.1201-4.6797-.3604-9.4795-.6006-13.5596h7.4404l.3594,8.8799h.2402c2.1602-6.1191,7.5596-10.4395,13.5596-10.6797,2.3994-.1201,4.7998,0,7.1992.1201v6.96c-1.4395-.1201-2.999-.4805-4.4395-.4805-10.6797,0-16.3193,7.6797-16.5596,19.1992v36.2393Z"/>
      <path d="M2271.7129,1956.9777c.2402,12.8398,6.1201,23.6396,20.8799,23.6396,8.5195,0,15.5986-6.1201,17.3994-14.3994h7.5596c-3.7197,14.3994-12.7197,20.999-27.2393,20.999-17.999,0-26.3984-15.4795-26.3984-31.9189,0-16.3193,8.999-31.9189,26.8789-31.9189,20.1592,0,27.4785,14.7598,27.4785,33.5986h-46.5586ZM2310.4717,1950.3781c-.8398-11.6396-7.0801-20.3994-19.5596-20.3994-11.7588,0-17.999,9.8398-18.959,20.3994h38.5186Z"/>
    </g>
  </g>
  <g isolation="isolate">
    <g>
      <path d="M1280.6841,154.1144h7.1997v46.6782c0,4.6802.3599,9.48.6001,13.5596h-7.4399l-.3599-8.8794-.2402-.2402c-4.1997,7.4395-11.0391,10.9194-18.8389,10.9194-19.6792,0-21.2393-17.3989-21.2393-24.3589v-37.6787h7.1997v38.8789c0,10.4395,5.9995,16.5591,15.8394,16.5591,11.8794,0,17.2793-9.9595,17.2793-20.7593v-34.6787Z"/>
      <path d="M1327.1245,152.3146c11.3994,0,20.999,3.96,21.959,16.6797h-7.7993c-.7202-7.5601-7.4399-10.0801-14.8794-10.0801-6.7197,0-13.5596,2.6401-13.5596,9.7197,0,8.8799,11.6396,8.04,27.959,13.7998,6.2397,2.1597,10.1987,7.5596,10.1987,14.0391,0,13.5596-12.5986,19.6792-25.3184,19.6792-10.4395,0-22.439-4.9194-22.6792-18.2393h7.7998c.6001,8.9995,8.5195,11.6396,16.6797,11.6396,7.6797,0,15.7192-3.6001,15.7192-11.9995,0-8.6396-9.48-10.0796-19.0796-12.2393-9.4795-2.2803-19.0791-5.04-19.0791-16.1997,0-12.4795,11.5195-16.7993,22.0791-16.7993Z"/>
      <path d="M1371.2852,185.9133c.2402,12.8398,6.1191,23.6392,20.8789,23.6392,8.5195,0,15.5996-6.1196,17.3994-14.3994h7.5596c-3.7197,14.3994-12.7197,20.999-27.2393,20.999-17.999,0-26.3984-15.479-26.3984-31.9185,0-16.3193,9-31.9189,26.8789-31.9189,20.1592,0,27.4785,14.7598,27.4785,33.5986h-46.5576ZM1410.043,179.3137c-.8398-11.6396-7.0791-20.3994-19.5586-20.3994-11.7598,0-17.999,9.8398-18.959,20.3994h38.5176Z"/>
    </g>
  </g>
  <g isolation="isolate">
    <g>
      <path d="M1526.7598,214.3522h-7.2002v-46.6782c.1201-4.6797-.3594-9.4795-.5996-13.5596h7.4395l.3604,8.8799h.2402c2.1592-6.1196,7.5596-10.4395,13.5586-10.6797,2.4004-.1201,4.7998,0,7.2002.1201v6.96c-1.4404-.1201-3-.4805-4.4395-.4805-10.6797,0-16.3193,7.6797-16.5596,19.1992v36.2388Z"/>
      <path d="M1596.8379,154.1144h7.1992v46.6782c0,4.6802.3604,9.48.6006,13.5596h-7.4404l-.3594-8.8794-.2402-.2402c-4.2002,7.4395-11.0391,10.9194-18.8389,10.9194-19.6797,0-21.2393-17.3989-21.2393-24.3589v-37.6787h7.1992v38.8789c0,10.4395,6,16.5591,15.8398,16.5591,11.8789,0,17.2793-9.9595,17.2793-20.7593v-34.6787Z"/>
      <path d="M1630.4395,214.3522h-7.1992v-46.6782c0-4.6797-.3604-9.4795-.6006-13.5596h7.4404l.3594,8.8799.2402.2402c4.2002-7.4399,11.04-10.9199,18.8389-10.9199,19.6797,0,21.2393,17.3994,21.2393,24.3594v37.6782h-7.1992v-38.8784c0-10.4395-6-16.5596-15.8398-16.5596-11.8789,0-17.2793,9.96-17.2793,20.7593v34.6787Z"/>
    </g>
  </g>
  <line x1="1327.3902" y1="737.633" x2="1327.3902" y2="278.0202" fill="none" stroke="#000" stroke-miterlimit="10" stroke-width="5"/>
  <line x1="1595.0647" y1="737.633" x2="1595.0647" y2="278.0202" fill="none" stroke="#000" stroke-miterlimit="10" stroke-width="5"/>
  <g>
    <line x1="1059.7158" y1="737.633" x2="1059.7158" y2="264.1908" fill="none" stroke="#000" stroke-miterlimit="10" stroke-width="5"/>
    <circle cx="1059.7158" cy="744.3489" r="13.1055"/>
  </g>
  <circle cx="1327.3904" cy="744.3489" r="13.1055"/>
  <circle cx="1595.0649" cy="744.3489" r="13.1055"/>
  <g>
    <line x1="1052.431" y1="1359.7123" x2="578.9888" y2="1359.7123" fill="none" stroke="#000" stroke-miterlimit="10" stroke-width="5"/>
    <circle cx="1059.1469" cy="1359.7123" r="13.1055"/>
  </g>
  <g>
    <line x1="1327.3903" y1="1359.7123" x2="1192.6331" y2="1781.1717" fill="none" stroke="#000" stroke-miterlimit="10" stroke-width="5"/>
    <circle cx="1327.4862" cy="1360.192" r="13.1055"/>
  </g>
  <g>
    <line x1="1595.4127" y1="1359.7123" x2="1730.1698" y2="1781.1717" fill="none" stroke="#000" stroke-miterlimit="10" stroke-width="5"/>
    <circle cx="1595.3167" cy="1360.192" r="13.1055"/>
  </g>
  <g>
    <line x1="1862.8352" y1="1360.192" x2="2122.0459" y2="1360.192" fill="none" stroke="#000" stroke-miterlimit="10" stroke-width="5"/>
    <circle cx="1862.7395" cy="1360.192" r="13.1055"/>
  </g>
</svg>