<?xml version="1.0" encoding="UTF-8"?>
<svg id="Layer_1" xmlns="http://www.w3.org/2000/svg" width="182" height="182" version="1.1" viewBox="0 0 182 182">
  <!-- Generator: Adobe Illustrator 29.7.1, SVG Export Plug-In . SVG Version: 2.1.1 Build 8)  -->
  <rect x="201.2692" y="227.9533" width="176.0646" height="182.0933"/>
  <g>
    <path d="M287.3943,314.5445l-61.9381-37.5784c-.5358-.3253-1.2054-.3359-1.7517-.0286-.5462.3075-.8842.8857-.8842,1.5125v75.1572c0,.6268.338,1.2049.8842,1.5124.2647.149.5581.2232.8514.2232.3121,0,.624-.0841.9003-.2517l61.9381-37.5788c.5186-.3147.8353-.8772.8353-1.4838s-.3167-1.1692-.8353-1.4838v-.0002Z" fill="#fff"/>
    <path d="M360.9476,314.5445l-61.9382-37.5784c-.5359-.3253-1.2054-.3359-1.7517-.0286-.5462.3075-.8842.8857-.8842,1.5125v75.1572c0,.6268.338,1.2049.8842,1.5124.2647.149.5581.2232.8514.2232.3121,0,.624-.0841.9003-.2517l61.9382-37.5788c.5185-.3146.8353-.8772.8353-1.4838s-.3168-1.1692-.8353-1.4838v-.0002Z" fill="#fff"/>
  </g>
  <rect x="198.2781" y="-.0467" width="182.0467" height="182.0467" rx="36.4667" ry="36.4667"/>
  <g>
    <path d="M164.575,73.5761c-9.6098,0-17.4265,7.8168-17.4265,17.425s7.8168,17.425,17.4265,17.425,17.425-7.8168,17.425-17.425-7.8168-17.425-17.425-17.425Z"/>
    <path d="M115.8494,73.5761c-9.6082,0-17.425,7.8168-17.425,17.425s7.8168,17.425,17.425,17.425,17.425-7.8168,17.425-17.425-7.8168-17.425-17.425-17.425Z"/>
    <path d="M67.4353,89.4748L2.5235,55.4803c-.5345-.2816-1.1759-.2605-1.6922.0515-.5156.312-.8313.8722-.8313,1.475v67.9873c0,.6027.3157,1.163.8313,1.475.2742.165.583.2484.8927.2484.2742,0,.5489-.0651.7995-.1954l64.9117-33.9929c.5686-.2983.9245-.8859.9245-1.528s-.3559-1.2297-.9245-1.5265v.0002Z"/>
  </g>
  <rect x="396.5795" y="-.0467" width="182.0467" height="182.0467" rx="36.4667" ry="36.4667"/>
  <g>
    <path d="M535.027,124.3529c-6.1963,0-11.2373,5.041-11.2373,11.2373s5.041,11.2373,11.2373,11.2373,11.2373-5.041,11.2373-11.2373-5.041-11.2373-11.2373-11.2373Z" fill="#fff"/>
    <path d="M503.6051,124.3529c-6.1963,0-11.2373,5.041-11.2373,11.2373s5.041,11.2373,11.2373,11.2373,11.2373-5.041,11.2373-11.2373-5.041-11.2373-11.2373-11.2373Z" fill="#fff"/>
    <path d="M472.3824,134.6059l-41.8613-21.9229c-.3447-.1807-.7578-.168-1.0908.0332s-.5361.5625-.5361.9512v43.8447c0,.3887.2031.75.5361.9512.1758.1064.376.1602.5752.1602.1768,0,.3535-.042.5156-.126l41.8613-21.9219c.3662-.1924.5957-.5713.5957-.9854s-.2295-.793-.5957-.9844h0Z" fill="#fff"/>
  </g>
  <g>
    <path d="M274.7713,62.2437c0,14.5232-11.7698,26.293-26.2885,26.293s-26.2885-11.7698-26.2885-26.293,11.7698-26.2883,26.2885-26.2883,26.2885,11.7696,26.2885,26.2883Z" fill="none" stroke="#fff" stroke-linecap="round" stroke-linejoin="round" stroke-width="10"/>
    <path d="M356.3619,62.2437c0,14.5232-11.7698,26.293-26.2885,26.293s-26.2885-11.7698-26.2885-26.293,11.7698-26.2883,26.2885-26.2883,26.2885,11.7696,26.2885,26.2883Z" fill="none" stroke="#fff" stroke-linecap="round" stroke-linejoin="round" stroke-width="10"/>
    <line x1="248.4829" y1="35.9554" x2="330.0734" y2="35.9554" fill="none" stroke="#fff" stroke-linecap="round" stroke-linejoin="round" stroke-width="10"/>
    <line x1="248.4829" y1="88.5367" x2="330.0734" y2="88.5367" fill="none" stroke="#fff" stroke-linecap="round" stroke-linejoin="round" stroke-width="10"/>
  </g>
  <path d="M436.1588,382.5908c1.2256,2.4502,2.1787,4.2891,3.1558,5.4014-.0151-.9199-.3779-3.4502-2.6353-10.1006-.6675-1.9658-1.563-3.1758-2.6616-3.5947-.8867-.335-1.7896-.1045-2.4204.1738l3.8159,6.6406c.2661.5215.5107,1.0098.7456,1.4795h0Z" fill="#fff"/>
  <path d="M482.5836,373.8213c.8462-.8643,1.5732-1.5664,2.0146-1.9443.6997-.585,1.771-1.8125,3.1655-3.4766.6812-.8027,1.3638-1.624,1.981-2.3662l1.6982-2.0234c4.8901-5.749,11.5923-13.0918,20.2935-19.1455,14.8711-10.3477,21.4971-17.5645,32.4736-29.521,5.374-5.854,12.0518-13.1284,21.2754-22.4766l-23.5029-40.7148c-11.4668,7.665-25.7812,11.7861-35.832,13.9014-2.3652.4976-7.4326,1.3765-13.3008,2.3945-12.3228,2.1377-29.1748,5.0605-33.5156,6.6172-3.2622,1.1699-5.7803,3.1914-8.1646,6.5542-8.103,11.4268-13.2949,20.0913-18.3159,28.4712-3.3208,5.542-6.4565,10.7759-10.1992,16.3901-.1987.2988-.397.5801-.5918.8564l-.0415.0596c-1.6768,2.377-2.8877,4.0938-.5576,12.8311,1.2383,4.6426,2.1567,8.873,2.9673,12.6045,1.3574,6.2529,2.4248,11.1689,4.1675,14.2676.0308.0547.0874.1777.1099.2363,1.0078,1.8428,1.2075,2.46,1.5693,3.5801.0728.2246.1514.4688.2471.751.7163-.2998,1.5938-.542,2.5591-.542.6362,0,1.3105.1045,2.002.3691,1.9741.751,3.4663,2.5791,4.4351,5.4316,2.354,6.9395,3.1001,10.4199,2.5737,12.3623,1.5952-.0762,3.0176-.333,4.2603-2.5879.0161-.0342.0483-.0928.082-.1436,2.2207-3.4072,4.4521-9.418,3.4243-15.1367-1.0366-5.7725-3.0239-7.5908-4.6201-9.0527-1.3364-1.2227-2.7173-2.4863-2.4438-5.2812.7231-7.4033.3779-13.7852.126-18.4443-.2373-4.3809-.3169-6.3672.2856-7.5732,1.7427-3.4854,10.6299-15.3652,14.3608-17.1304,7.9287-3.7485,18.1104.6099,22.668,4.2378,4.9863,3.9678,6.1436,9.9375,5.5635,14.2002-1.1279,8.2959-6.04,13.0166-10.79,17.582-3.8257,3.6777-7.7808,7.4795-9.5815,13.1992l-.0771.2451c-1.4502,4.6064-3.2549,10.3389-3.4653,12.6943l-.0337.376c-.0684.7812-.1211,1.4434-.1533,2.0068-.2661,2.8457-.4834,5.1689.7495,7.3066.126-2.8203,1.5552-6.1846,3.0479-9.4375,2.0029-4.3643,4.481-6.958,7.3662-7.708,2.2583-.5889,4.5962-.0137,6.9502,1.709.7412.541,2.1787,1.5918,2.77,3.4707h-.0004Z" fill="#fff"/>
  <path d="M459.9103,349.952c.8286-.1455,1.7876-.5312,2.8579-1.1514.8223-.4756,2.5161-3.7129.7031-9.9424-1.6587-5.6953-1.5439-7.1855.6812-8.8613.1978-.1484.4067-.3047.626-.502l.1992-.1807c.8931-.8037,1.7256-1.5537,2.2617-2.1748,2.6221-3.0361,4.5615-7.9111,5.2866-9.9077-1.415-.5674-2.833-1-4.2271-1.2896-1.2065,2.3345-2.8008,4.54-3.9507,6.0078l-.665.8457c-1.9429,2.4619-4.1396,5.2471-5.6064,8.2158l-.1519.3086c-3.2227,6.5215-3.415,6.9121.6357,15.252.5469,1.126,1,2.2607,1.3496,3.3799h.0001Z" fill="#fff"/>
  <path d="M466.9459,388.8144c1.2812.7246,3.208.4707,8.5845-6.251,3.6147-4.5176,4.5078-5.835,4.2876-7.4111-.1558-1.1133-.9297-1.7617-1.7773-2.3828-1.2212-.8936-2.3887-1.3467-3.4697-1.3467-.3228,0-.6436.041-.9531.1211-1.9429.5049-3.8086,2.5996-5.3945,6.0566-3.6978,8.0586-3.3579,10.0371-1.2773,11.2139h-.0002,0Z" fill="#fff"/>
  <path d="M467.1383,341.789c.8462.3311,1.7964.373,2.769.125,1.5664-.4023,2.3374-1.291,2.293-2.6416-.0283-.8564-.1382-1.0156-.3784-1.3643-.4761-.6895-.9233-1.4561-1.1743-3.2646-.0293-.2061-.0137-.4238.0459-.6279.6958-2.3613,1.5776-3.2373,2.7979-4.4482l.0024-.0029c.3975-.3936.855-.8467,1.3877-1.4375,2.1235-2.3564,3.3984-4.7354,3.8901-7.2637-.1299-.1152-.2627-.2285-.4014-.3389-.8652-.6885-1.9316-1.3784-3.1089-2.0122-1.5415,4.1128-3.8662,8.4048-5.7515,10.5894-.6602.7646-1.5625,1.5771-2.5176,2.4375l-.207.1865c-.2959.2646-.5737.4766-.8276.668-.7012.5273-1.021.7686.3936,5.6279.3745,1.2861.6392,2.5518.7871,3.7676h0Z" fill="#fff"/>
  <path d="M451.7526,361.6338c1.8823-.5986,4.3467-1.8252,5.397-4.2744,1.0322-2.4043.5991-5.5928-1.2871-9.4766-4.5195-9.3037-4.2329-10.5938-.6279-17.8906l.1528-.3086c1.6069-3.2549,4.0098-6.2998,5.9404-8.7461l.6597-.8389c1.2144-1.5488,2.2783-3.1104,3.1079-4.5571-2.3662-.1084-4.4604.2661-6.2427,1.1104-2.729,1.29-11.3589,12.5562-12.96,15.7593-.2729.5449-.1079,3.6006.0249,6.0547l.001.0098-.4993.0273h0l.4993-.0215c.2573,4.7549.6094,11.2686-.1362,18.8984-.1265,1.3018.3115,1.7031,1.4824,2.7754.582.5322,1.2939,1.1846,2.0024,2.0547.8423-.125,1.6772-.3184,2.4854-.5762h0Z" fill="#fff"/>
  <line x1="445.4191" y1="338.5028" x2="444.9196" y2="338.5302" fill="none" stroke="#000" stroke-linecap="round" stroke-linejoin="round"/>
  <path d="M402.5617,227.9533v182.0933h176.0645v-182.0933h-176.0645ZM468.2233,377.6005c1.5859-3.457,3.4517-5.5518,5.3945-6.0566.3096-.0801.6304-.1211.9531-.1211,1.0811,0,2.2485.4531,3.4697,1.3467.8477.6211,1.6216,1.2695,1.7773,2.3828.2202,1.5762-.6729,2.8936-4.2876,7.4111-5.3765,6.7217-7.3032,6.9756-8.5845,6.251-2.0806-1.1768-2.4204-3.1553,1.2773-11.2139h.0002,0ZM472.8634,368.6415c-2.8853.75-5.3633,3.3438-7.3662,7.708-1.4927,3.2529-2.9219,6.6172-3.0479,9.4375-1.2329-2.1377-1.0156-4.4609-.7495-7.3066.0322-.5635.085-1.2256.1533-2.0068l.0337-.376c.2104-2.3555,2.0151-8.0879,3.4653-12.6943l.0771-.2451c1.8008-5.7197,5.7559-9.5215,9.5815-13.1992,4.75-4.5654,9.6621-9.2861,10.79-17.582.5801-4.2627-.5771-10.2324-5.5635-14.2002-4.5576-3.6279-14.7393-7.9863-22.668-4.2378-3.731,1.7651-12.6182,13.645-14.3608,17.1304-.6025,1.2061-.5229,3.1924-.2856,7.5732.252,4.6592.5972,11.041-.126,18.4443-.2734,2.7949,1.1074,4.0586,2.4438,5.2812,1.5962,1.4619,3.5835,3.2803,4.6201,9.0527,1.0278,5.7188-1.2036,11.7295-3.4243,15.1367-.0337.0508-.0659.1094-.082.1436-1.2427,2.2549-2.665,2.5117-4.2603,2.5879.5264-1.9424-.2197-5.4229-2.5737-12.3623-.9688-2.8525-2.4609-4.6807-4.4351-5.4316-.6914-.2646-1.3657-.3691-2.002-.3691-.9653,0-1.8428.2422-2.5591.542-.0957-.2822-.1743-.5264-.2471-.751-.3618-1.1201-.5615-1.7373-1.5693-3.5801-.0225-.0586-.0791-.1816-.1099-.2363-1.7427-3.0986-2.8101-8.0146-4.1675-14.2676-.8105-3.7314-1.729-7.9619-2.9673-12.6045-2.3301-8.7373-1.1191-10.4541.5576-12.8311l.0415-.0596c.1948-.2764.3931-.5576.5918-.8564,3.7427-5.6143,6.8784-10.8481,10.1992-16.3901,5.021-8.3799,10.2129-17.0444,18.3159-28.4712,2.3843-3.3628,4.9023-5.3843,8.1646-6.5542,4.3408-1.5566,21.1929-4.4795,33.5156-6.6172,5.8682-1.0181,10.9355-1.897,13.3008-2.3945,10.0508-2.1152,24.3652-6.2363,35.832-13.9014l23.5029,40.7148c-9.2236,9.3481-15.9014,16.6226-21.2754,22.4766-10.9766,11.9565-17.6025,19.1733-32.4736,29.521-8.7012,6.0537-15.4033,13.3965-20.2935,19.1455l-1.6982,2.0234c-.6172.7422-1.2998,1.5635-1.981,2.3662-1.3945,1.6641-2.4658,2.8916-3.1655,3.4766-.4414.3779-1.1685,1.0801-2.0146,1.9443-.5913-1.8789-2.0288-2.9297-2.77-3.4707-2.354-1.7227-4.6919-2.2979-6.9502-1.709h.0004,0ZM465.9576,332.3935c.2539-.1914.5317-.4033.8276-.668l.207-.1865c.9551-.8604,1.8574-1.6729,2.5176-2.4375,1.8853-2.1846,4.21-6.4766,5.7515-10.5894,1.1772.6338,2.2437,1.3237,3.1089,2.0122.1387.1104.2715.2236.4014.3389-.4917,2.5283-1.7666,4.9072-3.8901,7.2637-.5327.5908-.9902,1.0439-1.3877,1.4375l-.0024.0029c-1.2202,1.2109-2.1021,2.0869-2.7979,4.4482-.0596.2041-.0752.4219-.0459.6279.251,1.8086.6982,2.5752,1.1743,3.2646.2402.3486.3501.5078.3784,1.3643.0444,1.3506-.7266,2.2393-2.293,2.6416-.9727.248-1.9229.2061-2.769-.125-.1479-1.2158-.4126-2.4814-.7871-3.7676-1.4146-4.8594-1.0947-5.1006-.3936-5.6279h0ZM444.9196,338.5302l.4995-.0273-.4995.0273ZM447.2648,360.1553c-1.1709-1.0723-1.6089-1.4736-1.4824-2.7754.7456-7.6299.3936-14.1436.1362-18.8984l-.4993.0215h0l.4993-.0273-.001-.0098c-.1328-2.4541-.2979-5.5098-.0249-6.0547,1.6011-3.2031,10.231-14.4692,12.96-15.7593,1.7822-.8442,3.8765-1.2188,6.2427-1.1104-.8296,1.4468-1.8936,3.0083-3.1079,4.5571l-.6597.8389c-1.9307,2.4463-4.3335,5.4912-5.9404,8.7461l-.1528.3086c-3.605,7.2969-3.8916,8.5869.6279,17.8906,1.8862,3.8838,2.3193,7.0723,1.2871,9.4766-1.0503,2.4492-3.5146,3.6758-5.397,4.2744-.8081.2578-1.6431.4512-2.4854.5762-.7085-.8701-1.4204-1.5225-2.0024-2.0547h0ZM457.9249,331.3202l.1519-.3086c1.4668-2.9688,3.6636-5.7539,5.6064-8.2158l.665-.8457c1.1499-1.4678,2.7441-3.6733,3.9507-6.0078,1.394.2896,2.812.7222,4.2271,1.2896-.7251,1.9966-2.6646,6.8716-5.2866,9.9077-.5361.6211-1.3687,1.3711-2.2617,2.1748l-.1992.1807c-.2192.1973-.4282.3535-.626.502-2.2251,1.6758-2.3398,3.166-.6812,8.8613,1.813,6.2295.1191,9.4668-.7031,9.9424-1.0703.6201-2.0293,1.0059-2.8579,1.1514-.3496-1.1191-.8027-2.2539-1.3496-3.3799-4.0508-8.3398-3.8584-8.7305-.6357-15.252h-.0001ZM434.0177,374.2969c1.0986.4189,1.9941,1.6289,2.6616,3.5947,2.2573,6.6504,2.6201,9.1807,2.6353,10.1006-.9771-1.1123-1.9302-2.9512-3.1558-5.4014-.2349-.4697-.4795-.958-.7456-1.4795l-3.8159-6.6406c.6309-.2783,1.5337-.5088,2.4204-.1738h0Z"/>
</svg>