<?xml version="1.0" encoding="UTF-8"?>
<svg id="Layer_1" data-name="Layer 1" xmlns="http://www.w3.org/2000/svg" width="182" height="182" viewBox="0 0 182 182">
  <rect x="-.03" y="-.27" width="182.05" height="182.05" rx="36.47" ry="36.47" fill="#f33"/>
  <g>
    <circle cx="91" cy="90.75" r="54.82"/>
    <circle cx="91" cy="90.75" r="19.03" fill="#e6e6e6"/>
    <g>
      <path d="M91.35,50.6l-20.74,5.56c-1.71.46-3.41-.77-3.51-2.54l-1.44-25.46c-.07-1.32.79-2.51,2.06-2.85l10.7-2.87c1.28-.34,2.62.26,3.21,1.44l11.48,22.77c.8,1.58-.06,3.49-1.77,3.95Z"/>
      <path d="M90.64,130.9l20.74-5.56c1.71-.46,3.41.77,3.51,2.54l1.44,25.46c.07,1.32-.79,2.51-2.06,2.85l-10.7,2.87c-1.28.34-2.62-.26-3.21-1.44l-11.48-22.77c-.8-1.58.06-3.49,1.77-3.95Z"/>
    </g>
    <g>
      <path d="M71.23,55.8l-15.18,15.18c-1.25,1.25-3.33,1.04-4.3-.44l-13.98-21.33c-.72-1.1-.57-2.57.36-3.5l7.84-7.84c.93-.93,2.4-1.08,3.5-.36l21.33,13.98c1.48.97,1.69,3.05.44,4.3Z"/>
      <path d="M110.76,125.7l15.18-15.18c1.25-1.25,3.33-1.04,4.3.44l13.98,21.33c.72,1.1.57,2.57-.36,3.5l-7.84,7.84c-.93.93-2.4,1.08-3.5.36l-21.33-13.98c-1.48-.97-1.69-3.05-.44-4.3Z"/>
    </g>
    <g>
      <path d="M56.41,70.37l-5.56,20.74c-.46,1.71-2.37,2.56-3.95,1.77l-22.77-11.48c-1.18-.59-1.78-1.94-1.44-3.21l2.87-10.7c.34-1.28,1.53-2.14,2.85-2.06l25.46,1.44c1.77.1,2.99,1.8,2.54,3.51Z"/>
      <path d="M125.59,111.13l5.56-20.74c.46-1.71,2.37-2.56,3.95-1.77l22.77,11.48c1.18.59,1.78,1.94,1.44,3.21l-2.87,10.7c-.34,1.28-1.53,2.14-2.85,2.06l-25.46-1.44c-1.77-.1-2.99-1.8-2.54-3.51Z"/>
    </g>
    <g>
      <path d="M50.85,90.39l5.56,20.74c.46,1.71-.77,3.41-2.54,3.51l-25.46,1.44c-1.32.07-2.51-.79-2.85-2.06l-2.87-10.7c-.34-1.28.26-2.62,1.44-3.21l22.77-11.48c1.58-.8,3.49.06,3.95,1.77Z"/>
      <path d="M131.15,91.11l-5.56-20.74c-.46-1.71.77-3.41,2.54-3.51l25.46-1.44c1.32-.07,2.51.79,2.85,2.06l2.87,10.7c.34,1.28-.26,2.62-1.44,3.21l-22.77,11.48c-1.58.8-3.49-.06-3.95-1.77Z"/>
    </g>
    <g>
      <path d="M56.05,110.52l15.18,15.18c1.25,1.25,1.04,3.33-.44,4.3l-21.33,13.98c-1.1.72-2.57.57-3.5-.36l-7.84-7.84c-.93-.93-1.08-2.4-.36-3.5l13.98-21.33c.97-1.48,3.05-1.69,4.3-.44Z"/>
      <path d="M125.95,70.98l-15.18-15.18c-1.25-1.25-1.04-3.33.44-4.3l21.33-13.98c1.1-.72,2.57-.57,3.5.36l7.84,7.84c.93.93,1.08,2.4.36,3.5l-13.98,21.33c-.97,1.48-3.05,1.69-4.3.44Z"/>
    </g>
    <g>
      <path d="M70.61,125.34l20.74,5.56c1.71.46,2.56,2.37,1.77,3.95l-11.48,22.77c-.59,1.18-1.94,1.78-3.21,1.44l-10.7-2.87c-1.28-.34-2.14-1.53-2.06-2.85l1.44-25.46c.1-1.77,1.8-2.99,3.51-2.54Z"/>
      <path d="M111.38,56.16l-20.74-5.56c-1.71-.46-2.56-2.37-1.77-3.95l11.48-22.77c.59-1.18,1.94-1.78,3.21-1.44l10.7,2.87c1.28.34,2.14,1.53,2.06,2.85l-1.44,25.46c-.1,1.77-1.8,2.99-3.51,2.54Z"/>
    </g>
  </g>
</svg>