<?xml version="1.0" encoding="UTF-8"?>
<svg id="Layer_1" data-name="Layer 1" xmlns="http://www.w3.org/2000/svg" width="182" height="182" viewBox="0 0 182 182">
  <rect x="-.02" y="-.02" width="182.05" height="182.05" rx="36.47" ry="36.47" fill="#e6e6e6"/>
  <g>
    <g>
      <path d="M151.54,110.51c-7.91,0-14.34,6.43-14.34,14.34s6.43,14.34,14.34,14.34,14.34-6.43,14.34-14.34-6.43-14.34-14.34-14.34Z"/>
      <path d="M111.45,110.51c-7.91,0-14.34,6.43-14.34,14.34s6.43,14.34,14.34,14.34,14.34-6.43,14.34-14.34-6.43-14.34-14.34-14.34Z"/>
      <path d="M71.61,123.59l-53.41-27.97c-.44-.23-.97-.21-1.39.04s-.68.72-.68,1.21v55.94c0,.5.26.96.68,1.21.22.14.48.2.73.2.23,0,.45-.05.66-.16l53.41-27.97c.47-.25.76-.73.76-1.26s-.29-1.01-.76-1.26h0s0,0,0,0Z" fill="#f33"/>
    </g>
    <g>
      <path d="M75.65,55.58c0,15.36-12.45,27.82-27.81,27.82s-27.81-12.45-27.81-27.82,12.45-27.81,27.81-27.81,27.81,12.45,27.81,27.81h0Z" fill="none" stroke="#000" stroke-linecap="round" stroke-linejoin="round" stroke-width="10"/>
      <path d="M161.97,55.58c0,15.36-12.45,27.82-27.81,27.82s-27.81-12.45-27.81-27.82,12.45-27.81,27.81-27.81,27.81,12.45,27.81,27.81h0Z" fill="none" stroke="#000" stroke-linecap="round" stroke-linejoin="round" stroke-width="10"/>
      <line x1="47.84" y1="27.76" x2="134.16" y2="27.76" fill="none" stroke="#000" stroke-linecap="round" stroke-linejoin="round" stroke-width="10"/>
      <line x1="47.84" y1="83.39" x2="134.16" y2="83.39" fill="none" stroke="#000" stroke-linecap="round" stroke-linejoin="round" stroke-width="10"/>
    </g>
  </g>
</svg>