<?xml version="1.0" encoding="UTF-8"?>
<svg id="Layer_1" xmlns="http://www.w3.org/2000/svg" width="182" height="182" version="1.1" viewBox="0 0 182 182">
  <!-- Generator: Adobe Illustrator 29.7.1, SVG Export Plug-In . SVG Version: 2.1.1 Build 8)  -->
  <rect x="201.2692" y="227.9533" width="176.0646" height="182.0933"/>
  <g>
    <path d="M287.3943,314.5445l-61.9381-37.5784c-.5358-.3253-1.2054-.3359-1.7517-.0286-.5462.3075-.8842.8857-.8842,1.5125v75.1572c0,.6268.338,1.2049.8842,1.5124.2647.149.5581.2232.8514.2232.3121,0,.624-.0841.9003-.2517l61.9381-37.5788c.5186-.3147.8353-.8772.8353-1.4838s-.3167-1.1692-.8353-1.4838v-.0002Z" fill="#fff"/>
    <path d="M360.9476,314.5445l-61.9382-37.5784c-.5359-.3253-1.2054-.3359-1.7517-.0286-.5462.3075-.8842.8857-.8842,1.5125v75.1572c0,.6268.338,1.2049.8842,1.5124.2647.149.5581.2232.8514.2232.3121,0,.624-.0841.9003-.2517l61.9382-37.5788c.5185-.3146.8353-.8772.8353-1.4838s-.3168-1.1692-.8353-1.4838v-.0002Z" fill="#fff"/>
  </g>
  <rect x="198.2781" y="-.0467" width="182.0467" height="182.0467" rx="21.3312" ry="21.3312"/>
  <g>
    <path d="M-118.071,73.5761c-9.6098,0-17.4265,7.8168-17.4265,17.425s7.8168,17.425,17.4265,17.425,17.425-7.8168,17.425-17.425-7.8168-17.425-17.425-17.425Z"/>
    <path d="M-166.7966,73.5761c-9.6082,0-17.425,7.8168-17.425,17.425s7.8168,17.425,17.425,17.425,17.425-7.8168,17.425-17.425-7.8168-17.425-17.425-17.425Z"/>
    <path d="M-215.2107,89.4748l-64.9118-33.9945c-.5345-.2816-1.1759-.2605-1.6922.0515-.5156.312-.8313.8722-.8313,1.475v67.9873c0,.6027.3157,1.163.8313,1.475.2742.165.583.2484.8927.2484.2742,0,.5489-.0651.7995-.1954l64.9117-33.9929c.5686-.2983.9245-.8859.9245-1.528s-.3559-1.2297-.9245-1.5265v.0002h.0001Z"/>
  </g>
  <rect x="396.5795" y="-.0467" width="182.0467" height="182.0467" rx="36.4667" ry="36.4667"/>
  <g>
    <path d="M161.5752,74.2805c-9.2196,0-16.7202,7.5006-16.7202,16.7202s7.5006,16.7202,16.7202,16.7202,16.7202-7.5006,16.7202-16.7202-7.5006-16.7202-16.7202-16.7202Z"/>
    <path d="M114.8219,74.2805c-9.2196,0-16.7202,7.5006-16.7202,16.7202s7.5006,16.7202,16.7202,16.7202,16.7202-7.5006,16.7202-16.7202-7.5006-16.7202-16.7202-16.7202Z"/>
    <path d="M68.3649,89.5362L6.0786,56.9166c-.5129-.2689-1.1276-.25-1.623.0494s-.7977.837-.7977,1.4153v65.2375c0,.5784.3022,1.1159.7977,1.4153.2616.1583.5595.2384.8558.2384.263,0,.526-.0625.7672-.1875l62.2863-32.6181c.5449-.2863.8864-.8501.8864-1.4662s-.3415-1.1799-.8864-1.4647h0v.0002h0Z" fill="#f33"/>
  </g>
  <g>
    <path d="M-339.4248,118.8702c-9.2196,0-16.7202,7.5006-16.7202,16.7202s7.5006,16.7202,16.7202,16.7202,16.7202-7.5006,16.7202-16.7202-7.5006-16.7202-16.7202-16.7202Z"/>
    <path d="M-386.1781,118.8702c-9.2196,0-16.7202,7.5006-16.7202,16.7202s7.5006,16.7202,16.7202,16.7202,16.7202-7.5006,16.7202-16.7202-7.5006-16.7202-16.7202-16.7202Z"/>
    <path d="M-432.6351,134.1259l-62.2863-32.6196c-.5129-.2689-1.1276-.25-1.623.0494s-.7977.837-.7977,1.4153v65.2375c0,.5784.3022,1.1159.7977,1.4153.2616.1583.5595.2384.8558.2384.263,0,.526-.0625.7672-.1875l62.2863-32.6181c.5449-.2863.8864-.8501.8864-1.4662s-.3415-1.1799-.8864-1.4647h0v.0002h0Z" fill="#f33"/>
  </g>
  <g>
    <path d="M-427.9198,54.8132c0,17.9167-14.5199,32.4366-32.4311,32.4366s-32.4311-14.5199-32.4311-32.4366,14.5199-32.4309,32.4311-32.4309,32.4311,14.5197,32.4311,32.4308h0Z" fill="none" stroke="#000" stroke-linecap="round" stroke-linejoin="round" stroke-width="10"/>
    <path d="M-327.2647,54.8132c0,17.9167-14.5199,32.4366-32.4311,32.4366s-32.4311-14.5199-32.4311-32.4366,14.5199-32.4308,32.4311-32.4308,32.4311,14.5197,32.4311,32.4308h0Z" fill="none" stroke="#000" stroke-linecap="round" stroke-linejoin="round" stroke-width="10"/>
    <line x1="-460.3508" y1="22.3823" x2="-359.6958" y2="22.3823" fill="none" stroke="#000" stroke-linecap="round" stroke-linejoin="round" stroke-width="10"/>
    <line x1="-460.3508" y1="87.2498" x2="-359.6958" y2="87.2498" fill="none" stroke="#000" stroke-linecap="round" stroke-linejoin="round" stroke-width="10"/>
  </g>
  <rect y="227.9533" width="182" height="182.0933" fill="#f33"/>
  <g>
    <path d="M23.6074,392.5765c1.4575,2.9139,2.591,5.1007,3.753,6.4235-.018-1.094-.4494-4.1031-3.134-12.012-.7938-2.3378-1.8588-3.7768-3.1653-4.2749-1.0545-.3984-2.1283-.1243-2.8784.2067l4.538,7.8972c.3165.6202.6074,1.2009.8867,1.7595h0Z" fill="#fff"/>
    <path d="M78.8173,382.1475c1.0063-1.0278,1.8709-1.8628,2.3958-2.3122.8321-.6957,2.1061-2.1555,3.7645-4.1345.8101-.9546,1.6219-1.9313,2.3559-2.814l2.0196-2.4063c5.8155-6.8369,13.7859-15.5692,24.1337-22.7685,17.6852-12.3058,25.5651-20.8883,38.6187-35.1074,6.391-6.9618,14.3324-15.6127,25.3014-26.7299l-27.9505-48.4194c-13.6367,9.1155-30.6599,14.0164-42.6126,16.532-2.8128.5917-8.8391,1.637-15.8178,2.8476-14.6547,2.5422-34.6957,6.0181-39.8579,7.8694-3.8795,1.3913-6.8741,3.7953-9.7096,7.7945-9.6364,13.5891-15.8107,23.8933-21.7819,33.8589-3.9492,6.5907-7.6783,12.8151-12.1292,19.4917-.2363.3553-.4721.6899-.7038,1.0185l-.0494.0709c-1.9941,2.8268-3.4341,4.8685-.6631,15.2592,1.4726,5.5211,2.5648,10.5521,3.5288,14.9897,1.6143,7.4362,2.8837,13.2824,4.9561,16.9675.0366.065.1039.2113.1307.281,1.1985,2.1915,1.436,2.9255,1.8663,4.2576.0866.2671.18.5575.2939.8931.8519-.3565,1.8954-.6446,3.0434-.6446.7566,0,1.5585.1243,2.3809.439,2.3477.8931,4.1223,3.0672,5.2744,6.4595,2.7995,8.2527,3.6867,12.3917,3.0607,14.7017,1.8971-.0906,3.5886-.396,5.0665-3.0776.0192-.0407.0575-.1104.0975-.1708,2.6409-4.052,5.2946-11.2002,4.0723-18.0011-1.2327-6.8648-3.5961-9.0272-5.4944-10.7658-1.5893-1.4541-3.2315-2.9568-2.9062-6.2806.86-8.8042.4494-16.3938.1499-21.9346-.2822-5.2099-.3769-7.5721.3397-9.0063,2.0725-4.145,12.6415-18.2728,17.0784-20.3721,9.4291-4.4578,21.5375.7253,26.9576,5.0397,5.9299,4.7186,7.3062,11.818,6.6163,16.8874-1.3413,9.8658-7.183,15.4798-12.8318,20.9091-4.5497,4.3737-9.2532,8.8949-11.3947,15.6969l-.0917.2915c-1.7246,5.4781-3.8709,12.2954-4.1211,15.0965l-.0401.4472c-.0813.929-.144,1.7165-.1823,2.3866-.3165,3.3842-.5749,6.1471.8913,8.6893.1499-3.354,1.8495-7.3549,3.6247-11.2234,2.3819-5.1902,5.3289-8.2747,8.7601-9.1666,2.6856-.7003,5.4659-.0163,8.2654,2.0324.8815.6434,2.591,1.893,3.2942,4.1275h-.0005v-.0002h0Z" fill="#fff"/>
    <path d="M51.8535,353.7613c.9854-.173,2.1259-.6317,3.3987-1.3693.9779-.5656,2.9922-4.4155.8361-11.8239-1.9726-6.7731-1.8361-8.5452.8101-10.5382.2352-.1765.4837-.3623.7445-.597l.2369-.2149c1.0621-.9558,2.0521-1.8477,2.6897-2.5864,3.1183-3.6106,5.4247-9.4082,6.287-11.7826-1.6828-.6748-3.3691-1.1892-5.027-1.5337-1.4348,2.7763-3.3308,5.3991-4.6983,7.1447l-.7909,1.0057c-2.3106,2.9278-4.9229,6.24-6.6673,9.7705l-.1806.367c-3.8325,7.7556-4.0612,8.2201.756,18.1382.6504,1.3391,1.1892,2.6885,1.605,4.0195h0v.0004h0Z" fill="#fff"/>
    <path d="M60.2204,399.9778c1.5236.8617,3.8151.5598,10.209-7.4339,4.2987-5.3725,5.3608-6.9392,5.099-8.8135-.1853-1.324-1.1056-2.0951-2.1136-2.8337-1.4523-1.0627-2.8407-1.6016-4.1263-1.6016-.3839,0-.7654.0487-1.1335.144-2.3106.6005-4.5293,3.0915-6.4153,7.2027-4.3976,9.5836-3.9933,11.9365-1.519,13.336h-.0003,0Z" fill="#fff"/>
    <path d="M60.4492,344.0536c1.0063.3937,2.1363.4436,3.293.1487,1.8628-.4784,2.7797-1.5353,2.7269-3.1415-.0336-1.0185-.1644-1.2078-.45-1.6225-.5662-.82-1.098-1.7316-1.3965-3.8824-.0348-.2451-.0163-.504.0546-.7467.8275-2.8081,1.8761-3.8499,3.3274-5.29l.0029-.0034c.4727-.4681,1.0168-1.0069,1.6503-1.7095,2.5253-2.8023,4.0415-5.6315,4.6262-8.6382-.1545-.137-.3124-.2717-.4774-.403-1.0289-.8188-2.2971-1.6392-3.6972-2.393-1.8332,4.8911-4.5978,9.9953-6.8399,12.5933-.7851.9093-1.8582,1.8755-2.994,2.8988l-.2462.2218c-.3519.3147-.6823.5668-.9842.7944-.8339.6271-1.2142.914.4681,6.6929.4454,1.5295.7601,3.0347.9361,4.4806h0v-.0003h-.0001Z" fill="#fff"/>
    <path d="M42.152,367.6537c2.2385-.7119,5.1693-2.1706,6.4183-5.0833,1.2275-2.8593.7125-6.6512-1.5307-11.2699-5.3747-11.0643-5.0339-12.5985-.7467-21.2761l.1817-.367c1.911-3.8709,4.7686-7.4919,7.0645-10.4012l.7845-.9976c1.4442-1.8419,2.7094-3.699,3.696-5.4195-2.814-.1289-5.3044.3165-7.424,1.3205-3.2454,1.5341-13.5084,14.9323-15.4125,18.7415-.3245.648-.1283,4.2819.0296,7.2004l.0012.0116-.5938.0325h0l.5938-.0256c.306,5.6547.7247,13.401-.162,22.4746-.1504,1.5481.3704,2.0254,1.7629,3.3006.6921.6329,1.5388,1.4088,2.3813,2.4435,1.0017-.1487,1.9946-.3786,2.9557-.6852h0s.0002.0002.0002.0002Z" fill="#fff"/>
    <line x1="34.62" y1="340.1455" x2="34.026" y2="340.1781" fill="none" stroke="#000" stroke-linecap="round" stroke-linejoin="round" stroke-width="1.1892"/>
  </g>
</svg>