<?xml version="1.0" encoding="UTF-8"?>
<svg id="Layer_1" xmlns="http://www.w3.org/2000/svg" width="271.1174" height="239.8898" version="1.1" viewBox="0 0 271.1174 239.8898">
  <!-- Generator: Adobe Illustrator 29.7.1, SVG Export Plug-In . SVG Version: 2.1.1 Build 8)  -->
  <g id="Layer_2">
    <path d="M268.5868,228.9792h0l-61.6514-106.6289L140.0226,6.2618c-1.9828-3.4392-6.9457-3.4406-8.9304-.0023L23.4141,192.8011l-.0007-.0003.0005.0007L2.5305,228.9799c-1.9837,3.4365.4965,7.7319,4.4645,7.7319h257.1276c3.9683,0,6.4485-4.296,4.4642-7.7326Z" fill="#fff"/>
  </g>
  <g id="Layer_11" data-name="Layer_1">
    <g id="uuid-ec05e35c-4ea0-4d92-a7e7-b2fb9676db5f" data-name="Layer_11">
      <g id="uuid-93244b45-9e4a-49a2-81b9-5725382a15aa">
        <polygon points="268.5866 228.9791 268.5867 228.9792 268.5867 228.9792 268.5866 228.9791" fill="#ff4a4a"/>
        <path d="M268.5867,228.9792l-61.4199-106.4004-.2315-.2285c-8.7586,8.8752-15.1007,15.7834-20.1965,21.3344-10.4238,11.3546-16.7151,18.2082-30.8498,28.0429-8.1952,5.7018-14.5178,12.6286-19.1127,18.0297-.0073.0083-.0143.0157-.0208.024l-1.5803,1.8837c-.5926.7124-1.2508,1.5034-1.9049,2.275-1.3373,1.5959-2.3674,2.7755-3.0539,3.3492-.5052.432-1.4319,1.3415-2.4881,2.4437-.0014-.0099-.0016-.0192-.003-.0291-.2979-2.1316-1.8142-3.2428-2.6289-3.8395h-.0009c-2.108-1.5432-4.1902-2.0631-6.1857-1.5422-2.5886.6725-4.8318,3.0419-6.6668,7.0414-1.8269,3.9812-3.273,7.5919-2.7449,10.3077-.074-.0835-.1467-.1604-.2217-.2493-2.078-2.4592-1.83-5.1069-1.5344-8.2637.0343-.5986.0927-1.3147.1689-2.1732l-.9451-.0676.9543-.0324c.204-2.2805,1.9221-7.739,3.3029-12.1253l.0735-.2331c1.7421-5.5343,5.5339-9.1786,9.2008-12.7035,4.4417-4.2687,9.0347-8.6826,10.0811-16.3792.532-3.9099-.5278-9.3831-5.0963-13.0191-4.228-3.3657-13.6606-7.4161-20.9773-3.957-3.3815,1.5996-11.7969,12.8386-13.384,16.0128-.5158,1.0325-.4359,2.979-.2216,6.9333.2395,4.4307.568,10.498-.1207,17.5495-.236,2.4119.9293,3.4787,2.163,4.6074,1.5653,1.4331,3.5133,3.2159,4.5241,8.8419.9983,5.5557-1.1625,11.3833-3.3153,14.6862-.0209.0314-.0408.0676-.0583.1027-1.3008,2.36-2.8495,2.6229-4.4543,2.6978-.2382.0108-.4614-.0049-.6781-.0337.8411-1.5225.237-4.8018-2.2056-12-.8696-2.5627-2.1889-4.1965-3.9213-4.8562-1.7682-.6749-3.4221-.1343-4.411.3616-.038-.0688-.0664-.1264-.0802-.1664-.1443-.4153-.2516-.7475-.3455-1.038-.3344-1.0344-.5187-1.6044-1.4789-3.3695-.0152-.0397-.0536-.124-.0744-.1609-1.6866-2.9985-2.7048-7.6891-3.994-13.6269-.7678-3.536-1.6381-7.5448-2.8102-11.9412-2.2648-8.4912-1.0636-10.1944.5985-12.5508.1948-.2767.3937-.5588.5931-.8577,3.5347-5.3021,6.5049-10.2591,9.6495-15.5076,4.7614-7.9463,9.6851-16.1637,17.3729-27.0044,2.3185-3.2704,4.7739-5.2383,7.961-6.3813,4.1532-1.489,20.1503-4.2635,31.831-6.2898,5.5557-.9635,10.3535-1.7957,12.5851-2.2652h.0001c9.5705-2.0146,23.2219-5.955,34.0482-13.2842L140.0226,6.2618c-1.9828-3.4392-6.9457-3.4406-8.9304-.0023L2.5305,228.9799c-1.9837,3.4365.4965,7.7319,4.4645,7.7319h257.1276c3.9683,0,6.4485-4.296,4.4642-7.7326h0ZM86.7603,212.6291c-.9999-1.0821-1.9234-2.8539-3.166-5.3379-.2219-.4446-.4535-.9065-.6934-1.3782l-3.8643-6.7245c.632-.3582,1.8731-.8851,3.1218-.4089,1.1795.4496,2.1218,1.693,2.8018,3.6951,2.8962,8.5347,2.596,10.1853,2.3777,10.4693l-.0056.0009.1471.9355-.7191-1.2513h0ZM124.3026,147.9075c.2097.1671.4062.3414.5991.5177-.3709,2.1581-1.3567,4.61-3.847,7.374h0c-.512.5669-.951,1.0027-1.333,1.381-1.1481,1.1398-1.9068,1.892-2.5313,4.0125-.0379.1285-.0482.2646-.0292.3978.2238,1.6107.5999,2.261,1.0324,2.8875.2562.3719.4113.5958.4427,1.5469.0634,1.9077-1.3392,2.6719-2.5276,2.9772-1.2305.3158-2.316.1557-3.181-.2525-.1224-1.1443-.3628-2.3963-.7606-3.7627-1.4317-4.9173-1.0723-5.1885-.2031-5.8425.2308-.1739.4838-.3663.7521-.6069l.1901-.1711h0c.896-.8067,1.7421-1.5681,2.3495-2.2721,1.9251-2.2298,4.2098-6.6664,5.5485-10.3925,1.344.6873,2.5431,1.4456,3.4983,2.2057h0ZM104.3397,183.3625h0c-1.0658,2.484-3.5271,3.7173-5.4044,4.314-.9555.3043-1.8585.4908-2.7008.6011-.6956-.8949-1.3965-1.5387-2.0138-2.1036-1.1319-1.0363-1.6999-1.5562-1.5566-3.0254.7031-7.195.37-13.3465.1272-17.8372-.1494-2.7532-.2901-5.354.0245-5.983,1.5766-3.1539,9.7791-13.861,12.4995-15.1469,2.1045-.996,4.4933-1.2545,6.8929-1.0471-.8903,1.6642-2.0789,3.4147-3.3481,5.0346l-.6254.7947c-1.8156,2.3009-4.0749,5.1644-5.5751,8.2026l-.1448.2924c-3.3777,6.837-3.6078,7.8778.5963,16.5319,1.8495,3.8079,2.2631,6.961,1.2287,9.3719h0ZM104.8151,173.1635c-3.9394-8.11-3.6873-8.6198-.6014-14.8656l.1443-.2934c1.4122-2.8588,3.5118-5.5196,5.3636-7.8667h.0002l.6296-.8002c1.2623-1.6109,2.7674-3.7469,3.8556-5.9346,1.6869.321,3.3375.8485,4.8627,1.4904-1.1131,3.1832-3.0262,7.3894-5.248,9.9628-.5297.6135-1.3328,1.336-2.1835,2.1021l-.1901.1711c-.2216.199-.4325.3572-.6245.5015-1.8162,1.3683-2.0618,2.4387-.4756,7.8852,1.7616,6.0525.1305,9.3757-.884,9.9613h.0005c-1.257.7276-2.3525,1.1238-3.2822,1.2014-.326-1.1207-.7716-2.2892-1.3672-3.5153h0ZM121.6879,207.3494c-5.0177,6.2718-7.122,6.9518-8.7359,6.0386h0c-2.5197-1.4258-2.2834-4.0504,1.0126-11.2344,1.564-3.4084,3.4389-5.4825,5.4219-5.9979h0c.3339-.0869.6749-.1304,1.0223-.1304,1.1284,0,2.324.4579,3.567,1.3674.853.6245,1.7,1.3387,1.8731,2.5738.234,1.6746-.6352,2.9763-4.161,7.3829h0Z" fill="#ff4a4a"/>
      </g>
      <g id="sparks">
        <g id="Layer_21">
          <polygon points="117.276 228.6708 176.6103 184.9506 178.7937 200.2345 234.2886 185.436 158.0243 228.9792 161.6763 208.9679 117.276 228.6708" fill="#fff"/>
          <polygon points="85.7034 228.0275 47.416 190.7504 52.9395 204.8711 23.4134 192.8008 50.9449 228.0275 49.1037 215.1461 85.7034 228.0275" fill="#fff"/>
        </g>
      </g>
    </g>
  </g>
</svg>