<?xml version="1.0" encoding="UTF-8"?>
<svg id="Layer_1" xmlns="http://www.w3.org/2000/svg" width="271.1174" height="280.4009" version="1.1" viewBox="0 0 271.1174 280.4009">
  <!-- Generator: Adobe Illustrator 29.7.1, SVG Export Plug-In . SVG Version: 2.1.1 Build 8)  -->
  <polygon points="268.5866 228.9791 268.5867 228.9792 268.5867 228.9792 268.5866 228.9791"/>
  <g>
    <path d="M1.0343,275.1335l2.5438-2.9858c2.1492,2.0165,5.0028,3.3492,8.0749,3.3492,3.5768,0,5.5627-1.6456,5.5627-3.9202,0-2.7623-2.0634-3.5283-4.8626-4.7125l-3.9861-1.7478c-2.8851-1.1378-6.0516-3.227-6.0516-7.3885,0-4.4028,3.9639-7.7331,9.5425-7.7331,3.4972,0,6.6848,1.3833,8.8761,3.5431l-2.2366,2.7656c-1.8874-1.5835-3.9398-2.52-6.8254-2.52-2.9731,0-4.9722,1.377-4.9722,3.6884,0,2.4526,2.4385,3.3481,4.9274,4.3131l3.8322,1.6888c3.5431,1.3801,6.1917,3.4461,6.1917,7.575,0,4.5355-3.8291,8.2366-10.2352,8.2366-4.0535,0-7.723-1.5751-10.3816-4.152h0Z"/>
    <path d="M27.9044,264.5106c0-9.2112,4.5198-14.5158,10.9858-14.5158s10.9853,5.3046,10.9853,14.5158c0,9.365-4.5192,14.7749-10.9853,14.7749s-10.9858-5.4099-10.9858-14.7749ZM45.4054,264.5106c0-6.788-2.5902-10.7272-6.5152-10.7272s-6.5152,3.9392-6.5152,10.7272c0,6.9428,2.5902,10.9864,6.5152,10.9864s6.5152-4.0434,6.5152-10.9864Z"/>
    <path d="M59.0393,250.5132h4.298v24.6035h13.6007v3.6516h-17.8987v-28.255h0Z"/>
    <path d="M84.7495,250.5132h7.1909c8.4115,0,13.2215,4.8463,13.2215,13.9974,0,9.1869-4.81,14.2576-13.0002,14.2576h-7.4122v-28.255h0ZM91.6576,275.2356c5.8972,0,9.0336-3.6747,9.0336-10.7251,0-7.0135-3.1364-10.4649-9.0336-10.4649h-2.5748v21.19h2.5748Z"/>
    <path d="M113.4759,250.5132h17.8071v3.6505h-13.4743v8.0154h11.3977v3.6516h-11.3977v9.2859h13.9057v3.6516h-18.2385v-28.255h0Z"/>
    <path d="M140.3577,250.5132h9.1426c5.7945,0,10.1657,2.0702,10.1657,8.1829,0,5.8619-4.3712,8.5959-10.1657,8.5959h-4.7747v11.4763h-4.368v-28.255h.0001ZM148.983,263.81c4.1267,0,6.3813-1.7151,6.3813-5.1139,0-3.4693-2.2545-4.702-6.3813-4.702h-4.2574v9.8158h4.2574ZM151.9045,263.6603l8.7181,15.1078h-4.88l-7.0882-12.6457,3.2502-2.4621h0Z"/>
    <path d="M169.5093,250.5132h4.2985v24.6035h13.6002v3.6516h-17.8987v-28.255h0Z"/>
    <path d="M196.3294,250.5132h17.808v3.6505h-13.4748v8.0154h11.3973v3.6516h-11.3973v9.2859h13.9057v3.6516h-18.2389v-28.255h0Z"/>
    <path d="M221.9758,275.1335l2.5443-2.9858c2.1492,2.0165,5.0022,3.3492,8.0744,3.3492,3.5768,0,5.5627-1.6456,5.5627-3.9202,0-2.7623-2.0639-3.5283-4.8631-4.7125l-3.9855-1.7478c-2.8857-1.1378-6.0516-3.227-6.0516-7.3885,0-4.4028,3.9634-7.7331,9.5419-7.7331,3.4978,0,6.6848,1.3833,8.8772,3.5431l-2.2366,2.7656c-1.888-1.5835-3.9402-2.52-6.8259-2.52-2.9732,0-4.9717,1.377-4.9717,3.6884,0,2.4526,2.4379,3.3481,4.9264,4.3131l3.8328,1.6888c3.5431,1.3801,6.1917,3.4461,6.1917,7.575,0,4.5355-3.8285,8.2366-10.2352,8.2366-4.054,0-7.7236-1.5751-10.3816-4.152h-.0002,0Z"/>
    <path d="M249.5945,275.1335l2.5443-2.9858c2.1492,2.0165,5.0022,3.3492,8.0744,3.3492,3.5768,0,5.5627-1.6456,5.5627-3.9202,0-2.7623-2.0639-3.5283-4.8631-4.7125l-3.9855-1.7478c-2.8857-1.1378-6.0516-3.227-6.0516-7.3885,0-4.4028,3.9634-7.7331,9.5419-7.7331,3.4978,0,6.6848,1.3833,8.8772,3.5431l-2.2366,2.7656c-1.888-1.5835-3.9402-2.52-6.8259-2.52-2.9732,0-4.9717,1.377-4.9717,3.6884,0,2.4526,2.4379,3.3481,4.9264,4.3131l3.8328,1.6888c3.5431,1.3801,6.1917,3.4461,6.1917,7.575,0,4.5355-3.8285,8.2366-10.2352,8.2366-4.053,0-7.7236-1.5751-10.3816-4.152h-.0002Z"/>
    <circle cx="38.8899" cy="264.6408" r="3.7596"/>
  </g>
  <path d="M268.5867,228.9792l-59.476-103.033c.0612-.0621.1198-.122.1813-.1843l-.6685-.6598-.037-.0642-.0061.0215h0l-.7121-.7028c-9.2451,9.3682-15.9395,16.6602-21.3184,22.5195-11.0029,11.9854-17.6436,19.2197-32.5635,29.6006-8.6504,6.0186-15.3242,13.3301-20.1743,19.0312-.0078.0088-.0151.0166-.022.0254l-1.668,1.9883c-.6255.752-1.3203,1.5869-2.0107,2.4014-1.4116,1.6846-2.499,2.9297-3.2236,3.5352-.5332.4561-1.5114,1.4161-2.6263,2.5795-.0014-.0104-.0016-.0203-.0031-.0306-.3145-2.25-1.915-3.4229-2.7749-4.0527h-.001c-2.2251-1.6289-4.4229-2.1777-6.5293-1.6279-2.7324.71-5.1001,3.2109-7.0371,7.4326-1.9283,4.2023-3.4547,8.0135-2.8973,10.8802-.0781-.0881-.1548-.1693-.234-.2631-2.1934-2.5957-1.9316-5.3906-1.6196-8.7227.0361-.6318.0977-1.3877.1782-2.2939l-.9976-.0713,1.0073-.0342c.2153-2.4072,2.0288-8.1689,3.4863-12.7988l.0776-.2461c1.8389-5.8418,5.8413-9.6885,9.7119-13.4092,4.6885-4.5059,9.5366-9.165,10.6411-17.2891.5615-4.127-.5571-9.9043-5.3794-13.7422-4.4629-3.5527-14.4194-7.8281-22.1426-4.1768-3.5693,1.6885-12.4521,13.5518-14.1274,16.9023-.5444,1.0898-.46,3.1445-.2339,7.3184.2529,4.6768.5996,11.0811-.1274,18.5244-.249,2.5459.981,3.6719,2.2832,4.8633,1.6523,1.5127,3.7085,3.3945,4.7754,9.333,1.0537,5.8643-1.2271,12.0156-3.4995,15.502-.022.0332-.043.0713-.0615.1084-1.373,2.4912-3.0078,2.7686-4.7017,2.8477-.2515.0114-.4871-.0052-.7158-.0356.8878-1.6071.2501-5.0686-2.3281-12.6666-.918-2.7051-2.3105-4.4297-4.1392-5.126-1.8664-.7123-3.6121-.1417-4.656.3817-.0401-.0726-.0701-.1334-.0847-.1756-.1523-.4385-.2656-.7891-.3647-1.0957-.353-1.0918-.5474-1.6934-1.561-3.5566-.0161-.042-.0566-.1309-.0786-.1699-1.7803-3.165-2.855-8.1162-4.2158-14.3838-.8105-3.7324-1.729-7.9639-2.9663-12.6045-2.3906-8.9629-1.1226-10.7607.6318-13.248.2056-.292.4155-.5898.626-.9053,3.731-5.5967,6.8662-10.8291,10.1855-16.3691,5.0259-8.3877,10.2231-17.0615,18.3379-28.5044,2.4473-3.4521,5.0391-5.5293,8.4033-6.7358,4.3838-1.5718,21.2695-4.5005,33.5991-6.6392,5.8643-1.0171,10.9287-1.8955,13.2842-2.3911,10.1372-2.1339,24.6136-6.3124,36.0601-14.1006.0204-.0139.0416-.0266.062-.0405l-.5605-.8219-.0029-.0043s.0002,0,.0003-.0002h.0001l.0449-.0164L140.0226,6.2618c-1.9828-3.4392-6.9457-3.4406-8.9304-.0023L2.5304,228.9799c-1.9837,3.4365.4965,7.7319,4.4645,7.7319h257.1276c3.9683,0,6.4485-4.296,4.4642-7.7326ZM115.4565,202.2619c.3525-.0918.7124-.1377,1.0791-.1377,1.1909,0,2.4531.4834,3.7651,1.4434.9004.6592,1.7944,1.4131,1.9771,2.7168.2471,1.7676-.6704,3.1416-4.3921,7.793-5.2964,6.6201-7.5176,7.3379-9.2212,6.374-2.6597-1.5049-2.4102-4.2754,1.0688-11.8584,1.6509-3.5977,3.6299-5.7871,5.7231-6.3311h0ZM88.8926,191.7258c-1.1948-1.0938-1.7944-1.6426-1.6431-3.1934.7422-7.5947.3906-14.0879.1343-18.8281-.1577-2.9062-.3062-5.6514.0259-6.3154,1.6641-3.3291,10.3223-14.6309,13.1938-15.9883,2.2214-1.0514,4.7429-1.3241,7.2758-1.1053-.9398,1.7567-2.1944,3.6044-3.5341,5.3143l-.6602.8389c-1.9165,2.4287-4.3013,5.4512-5.8848,8.6582l-.1528.3086c-3.5654,7.2168-3.8081,8.3154.6294,17.4502,1.9521,4.0195,2.3887,7.3477,1.2969,9.8926-1.125,2.6221-3.7231,3.9238-5.7046,4.5537-1.0086.3212-1.9617.5181-2.8508.6345-.7343-.9446-1.4741-1.6242-2.1257-2.2205h0ZM117.2173,159.6633c-.5405.5986-1.0039,1.0586-1.4072,1.458-1.2119,1.2031-2.0127,1.9971-2.6719,4.2354-.04.1357-.0508.2793-.0308.4199.2363,1.7002.6333,2.3867,1.0898,3.0479.2705.3926.4341.6289.4673,1.6328.0669,2.0137-1.4136,2.8203-2.668,3.1426-1.2988.3334-2.4446.1644-3.3577-.2665-.1292-1.2079-.383-2.5294-.8029-3.9717-1.5112-5.1904-1.1318-5.4766-.2144-6.167.2437-.1836.5107-.3867.7939-.6406l.2007-.1807c.9458-.8516,1.8389-1.6553,2.48-2.3984,2.0321-2.3537,4.4438-7.0368,5.8568-10.9698,1.4186.7255,2.6843,1.5259,3.6926,2.3282.2214.1763.429.3604.6324.5465-.3916,2.278-1.4321,4.8661-4.0607,7.7836v-.0002h.0001ZM109.5825,158.6682c-.5591.6475-1.4067,1.4102-2.3047,2.2188l-.2007.1807c-.2339.21-.4565.377-.6592.5293-1.917,1.4443-2.1763,2.5742-.502,8.3232,1.8594,6.3887.1377,9.8965-.9331,10.5146h.0005c-1.3268.7681-2.4831,1.1863-3.4645,1.2682-.3442-1.183-.8145-2.4163-1.4432-3.7106-4.1582-8.5605-3.8921-9.0986-.6348-15.6914l.1523-.3096c1.4907-3.0176,3.707-5.8262,5.6616-8.3037l.6646-.8447c1.3324-1.7004,2.9211-3.955,4.0698-6.2643,1.7806.3389,3.5229.8956,5.1328,1.5732-1.1749,3.36-3.1943,7.7999-5.5395,10.5162h.0001ZM79.1177,208.9319c3.0571,9.0088,2.7402,10.751,2.5098,11.0508l-.0059.001.1552.9875-.759-1.3208c-1.0555-1.1423-2.0303-3.0125-3.3419-5.6345-.2342-.4693-.4786-.9568-.7319-1.4547l-4.079-7.0981c.6671-.378,1.9772-.9343,3.2952-.4316,1.2451.4746,2.2397,1.7871,2.9575,3.9004h0Z"/>
  <path d="M135.5587,86.8893c9.6503,0,16.019-9.6854,16.019-26.3753,0-17.0703-6.3686-27.0123-16.019-27.0123s-16.0189,9.9417-16.0189,27.0123c0,16.6897,6.3686,26.3753,16.0189,26.3753ZM135.5593,50.6814c5.2545,0,9.5141,4.2598,9.5141,9.5141s-4.2596,9.514-9.5141,9.514-9.5142-4.2594-9.5142-9.514,4.2596-9.5141,9.5142-9.5141Z"/>
  <circle cx="135.5593" cy="60.1954" r="9.5141"/>
</svg>